# xmcd
#
# Track frame offsets:
#	150
#	17242
#	37227
#
# Disc length: 714 seconds
#
# Revision: 0
# Processed by: cddbd v1.5.2PL0 Copyright (c) Steve Scherf et al.
# Submitted via: audiograbber 1.83.01
#
DISCID=2202c803
DTITLE=Q-Me - Sä Oot Se Oikee [CDM)
DYEAR=1997
DGENRE=Pop
TTITLE0=Sä Oot Se Oikee (Original Radio Mix)
TTITLE1=Sä Oot Se Oikee (Reggae Radio Mix)
TTITLE2=Sä Oot Se Oikee (BB Radio Mix)
EXTD=TR.
EXTT0=
EXTT1=
EXTT2=
PLAYORDER=
